<svg width="39" height="32" viewBox="0 0 39 32" fill="none" xmlns="http://www.w3.org/2000/svg">
<path d="M31.5173 31.04C29.784 31.04 28.544 30.5467 27.7973 29.56C27.0507 28.5467 26.6773 27.0667 26.6773 25.12C26.6773 23.1733 27.304 18.6933 28.5573 11.68H27.9173C26.2907 13.8133 24.944 16.36 23.8773 19.32C22.8107 22.28 22.1573 24.9467 21.9173 27.32C20.6107 28.5467 19.104 29.16 17.3973 29.16C16.704 29.16 16.0907 28.92 15.5573 28.44C15.0507 27.9333 14.544 27.0667 14.0373 25.84C13.0507 23.36 12.344 18.64 11.9173 11.68H11.2773C9.97068 17.4133 9.31734 21.4533 9.31734 23.8C9.31734 26.1467 9.71734 27.96 10.5173 29.24C8.91734 30.44 7.25068 31.04 5.51734 31.04C3.78401 31.04 2.54401 30.5467 1.79734 29.56C1.05068 28.5467 0.677344 27.0533 0.677344 25.08C0.677344 23.08 1.51734 17.44 3.19734 8.16L1.07734 3.88C4.09068 1.93333 6.83734 0.96 9.31734 0.96C10.4107 0.96 11.3307 1.08 12.0773 1.32C12.8507 1.53333 13.584 1.96 14.2773 2.6C14.9973 3.24 15.584 4.13333 16.0373 5.28C17.0773 7.86667 17.824 11.64 18.2773 16.6H18.7573C20.144 12.52 22.064 9.01333 24.5173 6.08C25.8507 4.50667 27.4373 3.26667 29.2773 2.36C31.144 1.45333 33.1573 0.999999 35.3173 0.999999C37.3707 0.999999 38.3973 2.24 38.3973 4.72C38.3973 5.54667 37.8773 8.62667 36.8373 13.96C35.824 19.2667 35.3173 22.4267 35.3173 23.44C35.3173 26.0267 35.7173 27.96 36.5173 29.24C34.9173 30.44 33.2507 31.04 31.5173 31.04Z" fill="white"/>
</svg>
